G75*
%MOIN*%
%OFA0B0*%
%FSLAX25Y25*%
%IPPOS*%
%LPD*%
%AMOC8*
5,1,8,0,0,1.08239X$1,22.5*
%
%ADD10C,0.00600*%
D10*
X0011300Y0011800D02*
X0008800Y0014300D01*
X0008800Y0019300D01*
X0011300Y0021800D01*
X0008800Y0024300D01*
X0008800Y0029300D01*
X0011300Y0031800D01*
X0008800Y0034300D01*
X0008800Y0039300D01*
X0011300Y0041800D01*
X0008800Y0044300D01*
X0008800Y0049300D01*
X0011300Y0051800D01*
X0008800Y0054300D01*
X0008800Y0059300D01*
X0011300Y0061800D01*
X0016300Y0061800D01*
X0018800Y0059300D01*
X0018800Y0054300D01*
X0016300Y0051800D01*
X0018800Y0049300D01*
X0018800Y0044300D01*
X0016300Y0041800D01*
X0011300Y0041800D01*
X0016300Y0041800D02*
X0018800Y0039300D01*
X0018800Y0034300D01*
X0016300Y0031800D01*
X0018800Y0029300D01*
X0018800Y0024300D01*
X0016300Y0021800D01*
X0018800Y0019300D01*
X0018800Y0014300D01*
X0016300Y0011800D01*
X0011300Y0011800D01*
X0018837Y0009329D02*
X0019404Y0009896D01*
X0021105Y0009896D01*
X0021105Y0010463D02*
X0020538Y0011030D01*
X0019404Y0011030D01*
X0018837Y0009329D02*
X0019404Y0008761D01*
X0021105Y0008761D01*
X0021105Y0010463D01*
X0022520Y0011030D02*
X0022520Y0009329D01*
X0023087Y0008761D01*
X0024789Y0008761D01*
X0024789Y0011030D01*
X0026203Y0010463D02*
X0026203Y0009329D01*
X0026770Y0008761D01*
X0028472Y0008761D01*
X0028472Y0012164D01*
X0028472Y0011030D02*
X0026770Y0011030D01*
X0026203Y0010463D01*
X0029886Y0011030D02*
X0030453Y0011030D01*
X0030453Y0008761D01*
X0029886Y0008761D02*
X0031021Y0008761D01*
X0032342Y0009329D02*
X0032909Y0008761D01*
X0034043Y0008761D01*
X0034610Y0009329D01*
X0034610Y0010463D01*
X0034043Y0011030D01*
X0032909Y0011030D01*
X0032342Y0010463D01*
X0032342Y0009329D01*
X0030453Y0012164D02*
X0030453Y0012731D01*
X0026495Y0017313D02*
X0024226Y0017313D01*
X0022811Y0017313D02*
X0020543Y0017313D01*
X0020543Y0017880D02*
X0021677Y0019015D01*
X0022811Y0017880D01*
X0022811Y0015612D01*
X0020543Y0015612D02*
X0020543Y0017880D01*
X0016300Y0021800D02*
X0011300Y0021800D01*
X0020464Y0025966D02*
X0020464Y0028235D01*
X0021598Y0029369D01*
X0022733Y0028235D01*
X0022733Y0025966D01*
X0022733Y0027668D02*
X0020464Y0027668D01*
X0024147Y0027668D02*
X0026416Y0027668D01*
X0026164Y0035297D02*
X0024462Y0035297D01*
X0024462Y0038700D01*
X0026164Y0038700D01*
X0026731Y0038133D01*
X0026731Y0035864D01*
X0026164Y0035297D01*
X0023048Y0035864D02*
X0022481Y0035297D01*
X0021346Y0035297D01*
X0020779Y0035864D01*
X0021346Y0036998D02*
X0022481Y0036998D01*
X0023048Y0036431D01*
X0023048Y0035864D01*
X0021346Y0036998D02*
X0020779Y0037565D01*
X0020779Y0038133D01*
X0021346Y0038700D01*
X0022481Y0038700D01*
X0023048Y0038133D01*
X0022589Y0041803D02*
X0020887Y0041803D01*
X0022589Y0041803D02*
X0023156Y0042370D01*
X0023156Y0044072D01*
X0020887Y0044072D01*
X0020887Y0045393D02*
X0020887Y0046527D01*
X0020887Y0045960D02*
X0023156Y0045960D01*
X0023156Y0046527D01*
X0024290Y0045960D02*
X0024857Y0045960D01*
X0024290Y0047941D02*
X0022022Y0047941D01*
X0020887Y0049076D01*
X0022022Y0050210D01*
X0024290Y0050210D01*
X0024290Y0052390D02*
X0020887Y0052390D01*
X0020887Y0054091D01*
X0021455Y0054658D01*
X0022589Y0054658D01*
X0023156Y0054091D01*
X0023156Y0052390D01*
X0022589Y0056073D02*
X0020887Y0056073D01*
X0022589Y0056073D02*
X0023156Y0056640D01*
X0023156Y0058342D01*
X0020887Y0058342D01*
X0021455Y0059756D02*
X0020887Y0060323D01*
X0020887Y0061458D01*
X0021455Y0062025D01*
X0023723Y0062025D01*
X0024290Y0061458D01*
X0024290Y0060323D01*
X0023723Y0059756D01*
X0022589Y0059756D02*
X0022589Y0060890D01*
X0022589Y0059756D02*
X0021455Y0059756D01*
X0025646Y0061793D02*
X0025646Y0065196D01*
X0027348Y0065196D01*
X0027915Y0064629D01*
X0027915Y0063494D01*
X0027348Y0062927D01*
X0025646Y0062927D01*
X0026781Y0062927D02*
X0027915Y0061793D01*
X0029329Y0062360D02*
X0029897Y0062927D01*
X0031598Y0062927D01*
X0031598Y0063494D02*
X0031598Y0061793D01*
X0029897Y0061793D01*
X0029329Y0062360D01*
X0031031Y0064062D02*
X0031598Y0063494D01*
X0031031Y0064062D02*
X0029897Y0064062D01*
X0033013Y0063494D02*
X0033580Y0064062D01*
X0035281Y0064062D01*
X0036696Y0064062D02*
X0038397Y0064062D01*
X0038964Y0063494D01*
X0038964Y0062360D01*
X0038397Y0061793D01*
X0036696Y0061793D01*
X0036696Y0060659D02*
X0036696Y0064062D01*
X0035281Y0062360D02*
X0034714Y0062927D01*
X0033580Y0062927D01*
X0033013Y0063494D01*
X0033013Y0061793D02*
X0034714Y0061793D01*
X0035281Y0062360D01*
X0044062Y0061793D02*
X0044062Y0065196D01*
X0045763Y0065196D01*
X0046331Y0064629D01*
X0046331Y0063494D01*
X0045763Y0062927D01*
X0044062Y0062927D01*
X0047745Y0061793D02*
X0048879Y0061793D01*
X0048312Y0061793D02*
X0048312Y0064062D01*
X0047745Y0064062D01*
X0048312Y0065196D02*
X0048312Y0065763D01*
X0053884Y0065196D02*
X0056152Y0065196D01*
X0056152Y0064629D01*
X0053884Y0062360D01*
X0053884Y0061793D01*
X0056152Y0061793D01*
X0057567Y0062360D02*
X0057567Y0063494D01*
X0058134Y0064062D01*
X0059268Y0064062D01*
X0059835Y0063494D01*
X0059835Y0062927D01*
X0057567Y0062927D01*
X0057567Y0062360D02*
X0058134Y0061793D01*
X0059268Y0061793D01*
X0061250Y0061793D02*
X0061250Y0064062D01*
X0062384Y0064062D02*
X0062951Y0064062D01*
X0062384Y0064062D02*
X0061250Y0062927D01*
X0061800Y0061800D02*
X0059300Y0059300D01*
X0059300Y0054300D01*
X0061800Y0051800D01*
X0059300Y0049300D01*
X0059300Y0044300D01*
X0061800Y0041800D01*
X0066800Y0041800D01*
X0069300Y0044300D01*
X0069300Y0049300D01*
X0066800Y0051800D01*
X0061800Y0051800D01*
X0057319Y0050852D02*
X0055617Y0050852D01*
X0055050Y0050285D01*
X0055050Y0048584D01*
X0057319Y0048584D01*
X0057319Y0047262D02*
X0057319Y0046128D01*
X0057319Y0046695D02*
X0055050Y0046695D01*
X0055050Y0046128D01*
X0053916Y0046695D02*
X0053349Y0046695D01*
X0053916Y0044714D02*
X0056185Y0044714D01*
X0057319Y0043579D01*
X0056185Y0042445D01*
X0053916Y0042445D01*
X0059300Y0039300D02*
X0061800Y0041800D01*
X0059300Y0039300D02*
X0059300Y0034300D01*
X0061800Y0031800D01*
X0059300Y0029300D01*
X0059300Y0024300D01*
X0061800Y0021800D01*
X0059300Y0019300D01*
X0059300Y0014300D01*
X0061800Y0011800D01*
X0066800Y0011800D01*
X0069300Y0014300D01*
X0069300Y0019300D01*
X0066800Y0021800D01*
X0061800Y0021800D01*
X0058106Y0022107D02*
X0054703Y0022107D01*
X0054703Y0023808D01*
X0055271Y0024375D01*
X0056405Y0024375D01*
X0056972Y0023808D01*
X0056972Y0022107D01*
X0058106Y0025790D02*
X0054703Y0025790D01*
X0054703Y0028059D02*
X0058106Y0028059D01*
X0056972Y0026924D01*
X0058106Y0025790D01*
X0057539Y0029473D02*
X0055271Y0029473D01*
X0054703Y0030040D01*
X0054703Y0031175D01*
X0055271Y0031742D01*
X0057539Y0029473D01*
X0058106Y0030040D01*
X0058106Y0031175D01*
X0057539Y0031742D01*
X0055271Y0031742D01*
X0061800Y0031800D02*
X0066800Y0031800D01*
X0069300Y0029300D01*
X0069300Y0024300D01*
X0066800Y0021800D01*
X0070609Y0020598D02*
X0074012Y0020598D01*
X0072878Y0019464D01*
X0074012Y0018329D01*
X0070609Y0018329D01*
X0071176Y0016915D02*
X0070609Y0016348D01*
X0070609Y0014646D01*
X0074012Y0014646D01*
X0072878Y0014646D02*
X0072878Y0016348D01*
X0072310Y0016915D01*
X0071176Y0016915D01*
X0071743Y0022012D02*
X0070609Y0023147D01*
X0074012Y0023147D01*
X0074012Y0024281D02*
X0074012Y0022012D01*
X0066800Y0031800D02*
X0069300Y0034300D01*
X0069300Y0039300D01*
X0066800Y0041800D01*
X0070491Y0038801D02*
X0070491Y0037100D01*
X0073894Y0037100D01*
X0073894Y0038801D01*
X0073327Y0039369D01*
X0071058Y0039369D01*
X0070491Y0038801D01*
X0071058Y0035685D02*
X0070491Y0035118D01*
X0070491Y0033984D01*
X0071058Y0033417D01*
X0071625Y0033417D01*
X0072192Y0033984D01*
X0072192Y0035118D01*
X0072759Y0035685D01*
X0073327Y0035685D01*
X0073894Y0035118D01*
X0073894Y0033984D01*
X0073327Y0033417D01*
X0072933Y0050119D02*
X0070664Y0050119D01*
X0070097Y0050686D01*
X0070097Y0051820D01*
X0070664Y0052387D01*
X0071799Y0052387D02*
X0071799Y0051253D01*
X0071799Y0052387D02*
X0072933Y0052387D01*
X0073500Y0051820D01*
X0073500Y0050686D01*
X0072933Y0050119D01*
X0073500Y0053802D02*
X0071231Y0053802D01*
X0071231Y0055503D01*
X0071799Y0056070D01*
X0073500Y0056070D01*
X0072933Y0057485D02*
X0071799Y0057485D01*
X0071231Y0058052D01*
X0071231Y0059753D01*
X0070097Y0059753D02*
X0073500Y0059753D01*
X0073500Y0058052D01*
X0072933Y0057485D01*
X0069300Y0059300D02*
X0069300Y0054300D01*
X0066800Y0051800D01*
X0069300Y0059300D02*
X0066800Y0061800D01*
X0061800Y0061800D01*
X0064319Y0062360D02*
X0064319Y0063494D01*
X0064886Y0064062D01*
X0066021Y0064062D01*
X0066588Y0063494D01*
X0066588Y0062360D01*
X0066021Y0061793D01*
X0064886Y0061793D01*
X0064319Y0062360D01*
X0016300Y0051800D02*
X0011300Y0051800D01*
X0011300Y0031800D02*
X0016300Y0031800D01*
X0025360Y0018448D02*
X0025360Y0016179D01*
X0050757Y0010463D02*
X0051892Y0010463D01*
X0051325Y0011597D02*
X0051892Y0012164D01*
X0051325Y0011597D02*
X0051325Y0008761D01*
X0053213Y0008761D02*
X0054347Y0008761D01*
X0053780Y0008761D02*
X0053780Y0011030D01*
X0053213Y0011030D01*
X0053780Y0012164D02*
X0053780Y0012731D01*
X0055668Y0012164D02*
X0056235Y0012164D01*
X0056235Y0008761D01*
X0055668Y0008761D02*
X0056803Y0008761D01*
X0058691Y0009329D02*
X0059258Y0008761D01*
X0058691Y0009329D02*
X0058691Y0011597D01*
X0058124Y0011030D02*
X0059258Y0011030D01*
X0060579Y0010463D02*
X0060579Y0009329D01*
X0061146Y0008761D01*
X0062281Y0008761D01*
X0062848Y0009896D02*
X0060579Y0009896D01*
X0060579Y0010463D02*
X0061146Y0011030D01*
X0062281Y0011030D01*
X0062848Y0010463D01*
X0062848Y0009896D01*
X0064262Y0009896D02*
X0065397Y0011030D01*
X0065964Y0011030D01*
X0064262Y0011030D02*
X0064262Y0008761D01*
M02*
