G75*
%MOIN*%
%OFA0B0*%
%FSLAX25Y25*%
%IPPOS*%
%LPD*%
%AMOC8*
5,1,8,0,0,1.08239X$1,22.5*
%
%ADD10C,0.06000*%
%ADD11C,0.01600*%
%ADD12C,0.02700*%
D10*
X0010800Y0016800D02*
X0016800Y0016800D01*
X0016800Y0026800D02*
X0010800Y0026800D01*
X0010800Y0036800D02*
X0016800Y0036800D01*
X0016800Y0046800D02*
X0010800Y0046800D01*
X0010800Y0056800D02*
X0016800Y0056800D01*
X0061300Y0056800D02*
X0067300Y0056800D01*
X0067300Y0046800D02*
X0061300Y0046800D01*
X0061300Y0036800D02*
X0067300Y0036800D01*
X0067300Y0026800D02*
X0061300Y0026800D01*
X0061300Y0016800D02*
X0067300Y0016800D01*
D11*
X0001800Y0001800D02*
X0001800Y0071800D01*
X0081800Y0071800D01*
X0081800Y0001800D01*
X0001800Y0001800D01*
X0001800Y0002004D02*
X0081800Y0002004D01*
X0081800Y0003603D02*
X0001800Y0003603D01*
X0001800Y0005201D02*
X0017626Y0005201D01*
X0017151Y0005338D02*
X0020263Y0004445D01*
X0021840Y0004500D01*
X0067449Y0004500D01*
X0071154Y0005704D01*
X0071154Y0005704D01*
X0074307Y0007994D01*
X0074307Y0007994D01*
X0074307Y0007994D01*
X0076597Y0011146D01*
X0076597Y0011146D01*
X0077801Y0014852D01*
X0077801Y0058748D01*
X0076597Y0062454D01*
X0074307Y0065606D01*
X0074307Y0065606D01*
X0074307Y0065606D01*
X0071154Y0067896D01*
X0067449Y0069100D01*
X0021861Y0069100D01*
X0020327Y0069182D01*
X0017240Y0068357D01*
X0014559Y0066619D01*
X0014559Y0066619D01*
X0014559Y0066619D01*
X0012546Y0064137D01*
X0011570Y0061600D01*
X0010422Y0061600D01*
X0009676Y0061482D01*
X0008957Y0061248D01*
X0008284Y0060905D01*
X0007673Y0060461D01*
X0007139Y0059927D01*
X0006695Y0059316D01*
X0006352Y0058643D01*
X0006118Y0057924D01*
X0006000Y0057178D01*
X0006000Y0057000D01*
X0011311Y0057000D01*
X0011311Y0056600D01*
X0006000Y0056600D01*
X0006000Y0056422D01*
X0006118Y0055676D01*
X0006352Y0054957D01*
X0006695Y0054284D01*
X0007139Y0053673D01*
X0007673Y0053139D01*
X0008284Y0052695D01*
X0008957Y0052352D01*
X0009676Y0052118D01*
X0010422Y0052000D01*
X0011311Y0052000D01*
X0011311Y0051200D01*
X0009925Y0051200D01*
X0008308Y0050530D01*
X0007070Y0049292D01*
X0006400Y0047675D01*
X0006400Y0045925D01*
X0007070Y0044308D01*
X0008308Y0043070D01*
X0009925Y0042400D01*
X0011311Y0042400D01*
X0011311Y0041200D01*
X0009925Y0041200D01*
X0008308Y0040530D01*
X0007070Y0039292D01*
X0006400Y0037675D01*
X0006400Y0035925D01*
X0007070Y0034308D01*
X0008308Y0033070D01*
X0009925Y0032400D01*
X0011311Y0032400D01*
X0011311Y0031200D01*
X0009925Y0031200D01*
X0008308Y0030530D01*
X0007070Y0029292D01*
X0006400Y0027675D01*
X0006400Y0025925D01*
X0007070Y0024308D01*
X0008308Y0023070D01*
X0009925Y0022400D01*
X0011311Y0022400D01*
X0011311Y0021200D01*
X0009925Y0021200D01*
X0008308Y0020530D01*
X0007070Y0019292D01*
X0006400Y0017675D01*
X0006400Y0015925D01*
X0007070Y0014308D01*
X0008308Y0013070D01*
X0009925Y0012400D01*
X0011493Y0012400D01*
X0012476Y0009699D01*
X0014468Y0007148D01*
X0014468Y0007148D01*
X0017151Y0005338D01*
X0017151Y0005338D01*
X0014984Y0006800D02*
X0001800Y0006800D01*
X0001800Y0008399D02*
X0013491Y0008399D01*
X0012367Y0009997D02*
X0001800Y0009997D01*
X0001800Y0011596D02*
X0011785Y0011596D01*
X0008183Y0013194D02*
X0001800Y0013194D01*
X0001800Y0014793D02*
X0006869Y0014793D01*
X0006400Y0016391D02*
X0001800Y0016391D01*
X0001800Y0017990D02*
X0006530Y0017990D01*
X0007366Y0019588D02*
X0001800Y0019588D01*
X0001800Y0021187D02*
X0009892Y0021187D01*
X0008995Y0022785D02*
X0001800Y0022785D01*
X0001800Y0024384D02*
X0007038Y0024384D01*
X0006400Y0025982D02*
X0001800Y0025982D01*
X0001800Y0027581D02*
X0006400Y0027581D01*
X0007023Y0029179D02*
X0001800Y0029179D01*
X0001800Y0030778D02*
X0008905Y0030778D01*
X0011311Y0032376D02*
X0001800Y0032376D01*
X0001800Y0033975D02*
X0007403Y0033975D01*
X0006546Y0035573D02*
X0001800Y0035573D01*
X0001800Y0037172D02*
X0006400Y0037172D01*
X0006854Y0038770D02*
X0001800Y0038770D01*
X0001800Y0040369D02*
X0008146Y0040369D01*
X0011311Y0041967D02*
X0001800Y0041967D01*
X0001800Y0043566D02*
X0007812Y0043566D01*
X0006715Y0045164D02*
X0001800Y0045164D01*
X0001800Y0046763D02*
X0006400Y0046763D01*
X0006684Y0048361D02*
X0001800Y0048361D01*
X0001800Y0049960D02*
X0007737Y0049960D01*
X0011311Y0051558D02*
X0001800Y0051558D01*
X0001800Y0053157D02*
X0007655Y0053157D01*
X0006455Y0054755D02*
X0001800Y0054755D01*
X0001800Y0056354D02*
X0006011Y0056354D01*
X0006127Y0057952D02*
X0001800Y0057952D01*
X0001800Y0059551D02*
X0006866Y0059551D01*
X0008763Y0061149D02*
X0001800Y0061149D01*
X0001800Y0062748D02*
X0012012Y0062748D01*
X0012546Y0064137D02*
X0012546Y0064137D01*
X0012716Y0064346D02*
X0001800Y0064346D01*
X0001800Y0065945D02*
X0014012Y0065945D01*
X0015985Y0067543D02*
X0001800Y0067543D01*
X0001800Y0069142D02*
X0020179Y0069142D01*
X0020327Y0069182D02*
X0020327Y0069182D01*
X0021072Y0069142D02*
X0081800Y0069142D01*
X0081800Y0067543D02*
X0071640Y0067543D01*
X0071154Y0067896D02*
X0071154Y0067896D01*
X0073840Y0065945D02*
X0081800Y0065945D01*
X0081800Y0064346D02*
X0075222Y0064346D01*
X0076383Y0062748D02*
X0081800Y0062748D01*
X0081800Y0061149D02*
X0077021Y0061149D01*
X0076597Y0062454D02*
X0076597Y0062454D01*
X0077540Y0059551D02*
X0081800Y0059551D01*
X0081800Y0057952D02*
X0077801Y0057952D01*
X0077801Y0056354D02*
X0081800Y0056354D01*
X0081800Y0054755D02*
X0077801Y0054755D01*
X0077801Y0053157D02*
X0081800Y0053157D01*
X0081800Y0051558D02*
X0077801Y0051558D01*
X0077801Y0049960D02*
X0081800Y0049960D01*
X0081800Y0048361D02*
X0077801Y0048361D01*
X0077801Y0046763D02*
X0081800Y0046763D01*
X0081800Y0045164D02*
X0077801Y0045164D01*
X0077801Y0043566D02*
X0081800Y0043566D01*
X0081800Y0041967D02*
X0077801Y0041967D01*
X0077801Y0040369D02*
X0081800Y0040369D01*
X0081800Y0038770D02*
X0077801Y0038770D01*
X0077801Y0037172D02*
X0081800Y0037172D01*
X0081800Y0035573D02*
X0077801Y0035573D01*
X0077801Y0033975D02*
X0081800Y0033975D01*
X0081800Y0032376D02*
X0077801Y0032376D01*
X0077801Y0030778D02*
X0081800Y0030778D01*
X0081800Y0029179D02*
X0077801Y0029179D01*
X0077801Y0027581D02*
X0081800Y0027581D01*
X0081800Y0025982D02*
X0077801Y0025982D01*
X0077801Y0024384D02*
X0081800Y0024384D01*
X0081800Y0022785D02*
X0077801Y0022785D01*
X0077801Y0021187D02*
X0081800Y0021187D01*
X0081800Y0019588D02*
X0077801Y0019588D01*
X0077801Y0017990D02*
X0081800Y0017990D01*
X0081800Y0016391D02*
X0077801Y0016391D01*
X0077781Y0014793D02*
X0081800Y0014793D01*
X0081800Y0013194D02*
X0077262Y0013194D01*
X0076743Y0011596D02*
X0081800Y0011596D01*
X0081800Y0009997D02*
X0075762Y0009997D01*
X0074600Y0008399D02*
X0081800Y0008399D01*
X0081800Y0006800D02*
X0072663Y0006800D01*
X0069608Y0005201D02*
X0081800Y0005201D01*
X0072281Y0013194D02*
X0069917Y0013194D01*
X0069792Y0013070D02*
X0071030Y0014308D01*
X0071700Y0015925D01*
X0071700Y0017675D01*
X0071030Y0019292D01*
X0069792Y0020530D01*
X0068175Y0021200D01*
X0060425Y0021200D01*
X0058808Y0020530D01*
X0057570Y0019292D01*
X0056900Y0017675D01*
X0056900Y0015925D01*
X0057570Y0014308D01*
X0058808Y0013070D01*
X0060425Y0012400D01*
X0068175Y0012400D01*
X0069792Y0013070D01*
X0071120Y0011596D02*
X0016919Y0011596D01*
X0016610Y0011990D02*
X0016461Y0012400D01*
X0017675Y0012400D01*
X0019292Y0013070D01*
X0020530Y0014308D01*
X0021200Y0015925D01*
X0021200Y0017675D01*
X0020530Y0019292D01*
X0019292Y0020530D01*
X0017675Y0021200D01*
X0015911Y0021200D01*
X0015911Y0022400D01*
X0017675Y0022400D01*
X0019292Y0023070D01*
X0020530Y0024308D01*
X0021200Y0025925D01*
X0021200Y0027675D01*
X0020530Y0029292D01*
X0019292Y0030530D01*
X0017675Y0031200D01*
X0015911Y0031200D01*
X0015911Y0032400D01*
X0017675Y0032400D01*
X0019292Y0033070D01*
X0020530Y0034308D01*
X0020651Y0034600D01*
X0057449Y0034600D01*
X0057570Y0034308D01*
X0058808Y0033070D01*
X0060425Y0032400D01*
X0068175Y0032400D01*
X0069792Y0033070D01*
X0071030Y0034308D01*
X0071700Y0035925D01*
X0071700Y0037675D01*
X0071030Y0039292D01*
X0069792Y0040530D01*
X0068175Y0041200D01*
X0060425Y0041200D01*
X0058808Y0040530D01*
X0057570Y0039292D01*
X0057449Y0039000D01*
X0020651Y0039000D01*
X0020530Y0039292D01*
X0019292Y0040530D01*
X0017675Y0041200D01*
X0015911Y0041200D01*
X0015911Y0042400D01*
X0017675Y0042400D01*
X0019292Y0043070D01*
X0020530Y0044308D01*
X0020651Y0044600D01*
X0057449Y0044600D01*
X0057570Y0044308D01*
X0058808Y0043070D01*
X0060425Y0042400D01*
X0068175Y0042400D01*
X0069792Y0043070D01*
X0071030Y0044308D01*
X0071700Y0045925D01*
X0071700Y0047675D01*
X0071030Y0049292D01*
X0069792Y0050530D01*
X0068175Y0051200D01*
X0060425Y0051200D01*
X0058808Y0050530D01*
X0057570Y0049292D01*
X0057449Y0049000D01*
X0020651Y0049000D01*
X0020530Y0049292D01*
X0019292Y0050530D01*
X0017675Y0051200D01*
X0015911Y0051200D01*
X0015911Y0052000D01*
X0017178Y0052000D01*
X0017924Y0052118D01*
X0018643Y0052352D01*
X0019316Y0052695D01*
X0019927Y0053139D01*
X0020461Y0053673D01*
X0020905Y0054284D01*
X0021248Y0054957D01*
X0021482Y0055676D01*
X0021600Y0056422D01*
X0021600Y0056600D01*
X0015911Y0056600D01*
X0015911Y0057000D01*
X0021600Y0057000D01*
X0021600Y0057178D01*
X0021482Y0057924D01*
X0021248Y0058643D01*
X0020905Y0059316D01*
X0020461Y0059927D01*
X0019927Y0060461D01*
X0019316Y0060905D01*
X0018643Y0061248D01*
X0017924Y0061482D01*
X0017178Y0061600D01*
X0016571Y0061600D01*
X0016637Y0061771D01*
X0017718Y0063104D01*
X0019159Y0064038D01*
X0020817Y0064481D01*
X0021550Y0064500D01*
X0021739Y0064500D01*
X0022629Y0064453D01*
X0022682Y0064500D01*
X0065501Y0064500D01*
X0066705Y0064405D01*
X0068997Y0063661D01*
X0070946Y0062245D01*
X0072362Y0060296D01*
X0073106Y0058005D01*
X0073201Y0056800D01*
X0073201Y0016800D01*
X0073106Y0015595D01*
X0072362Y0013304D01*
X0070946Y0011355D01*
X0068997Y0009939D01*
X0066705Y0009195D01*
X0065501Y0009100D01*
X0022706Y0009100D01*
X0022672Y0009132D01*
X0021760Y0009100D01*
X0021688Y0009100D01*
X0020839Y0009137D01*
X0019150Y0009622D01*
X0017692Y0010605D01*
X0016610Y0011990D01*
X0018593Y0009997D02*
X0069076Y0009997D01*
X0071231Y0014793D02*
X0072845Y0014793D01*
X0073169Y0016391D02*
X0071700Y0016391D01*
X0071570Y0017990D02*
X0073201Y0017990D01*
X0073201Y0019588D02*
X0070734Y0019588D01*
X0073201Y0021187D02*
X0068208Y0021187D01*
X0068175Y0022400D02*
X0069792Y0023070D01*
X0071030Y0024308D01*
X0071700Y0025925D01*
X0071700Y0027675D01*
X0071030Y0029292D01*
X0069792Y0030530D01*
X0068175Y0031200D01*
X0060425Y0031200D01*
X0058808Y0030530D01*
X0057570Y0029292D01*
X0056900Y0027675D01*
X0056900Y0025925D01*
X0057570Y0024308D01*
X0058808Y0023070D01*
X0060425Y0022400D01*
X0068175Y0022400D01*
X0069105Y0022785D02*
X0073201Y0022785D01*
X0073201Y0024384D02*
X0071062Y0024384D01*
X0071700Y0025982D02*
X0073201Y0025982D01*
X0073201Y0027581D02*
X0071700Y0027581D01*
X0071077Y0029179D02*
X0073201Y0029179D01*
X0073201Y0030778D02*
X0069195Y0030778D01*
X0070697Y0033975D02*
X0073201Y0033975D01*
X0073201Y0035573D02*
X0071554Y0035573D01*
X0071700Y0037172D02*
X0073201Y0037172D01*
X0073201Y0038770D02*
X0071246Y0038770D01*
X0069954Y0040369D02*
X0073201Y0040369D01*
X0073201Y0041967D02*
X0015911Y0041967D01*
X0019454Y0040369D02*
X0058646Y0040369D01*
X0058312Y0043566D02*
X0019788Y0043566D01*
X0013800Y0046800D02*
X0064300Y0046800D01*
X0064100Y0052000D02*
X0060922Y0052000D01*
X0060176Y0052118D01*
X0059457Y0052352D01*
X0058784Y0052695D01*
X0058173Y0053139D01*
X0057639Y0053673D01*
X0057195Y0054284D01*
X0056852Y0054957D01*
X0056618Y0055676D01*
X0056500Y0056422D01*
X0056500Y0056600D01*
X0064100Y0056600D01*
X0064500Y0056600D01*
X0064500Y0057000D01*
X0064100Y0057000D01*
X0064100Y0061600D01*
X0060922Y0061600D01*
X0060176Y0061482D01*
X0059457Y0061248D01*
X0058784Y0060905D01*
X0058173Y0060461D01*
X0057639Y0059927D01*
X0057195Y0059316D01*
X0056852Y0058643D01*
X0056618Y0057924D01*
X0056500Y0057178D01*
X0056500Y0057000D01*
X0064100Y0057000D01*
X0064100Y0056600D01*
X0064100Y0052000D01*
X0064500Y0052000D02*
X0067678Y0052000D01*
X0068424Y0052118D01*
X0069143Y0052352D01*
X0069816Y0052695D01*
X0070427Y0053139D01*
X0070961Y0053673D01*
X0071405Y0054284D01*
X0071748Y0054957D01*
X0071982Y0055676D01*
X0072100Y0056422D01*
X0072100Y0056600D01*
X0064500Y0056600D01*
X0064500Y0052000D01*
X0064500Y0053157D02*
X0064100Y0053157D01*
X0064100Y0054755D02*
X0064500Y0054755D01*
X0064500Y0056354D02*
X0064100Y0056354D01*
X0064500Y0057000D02*
X0072100Y0057000D01*
X0072100Y0057178D01*
X0071982Y0057924D01*
X0071748Y0058643D01*
X0071405Y0059316D01*
X0070961Y0059927D01*
X0070427Y0060461D01*
X0069816Y0060905D01*
X0069143Y0061248D01*
X0068424Y0061482D01*
X0067678Y0061600D01*
X0064500Y0061600D01*
X0064500Y0057000D01*
X0064500Y0057952D02*
X0064100Y0057952D01*
X0064100Y0059551D02*
X0064500Y0059551D01*
X0064500Y0061149D02*
X0064100Y0061149D01*
X0066886Y0064346D02*
X0020312Y0064346D01*
X0017429Y0062748D02*
X0070253Y0062748D01*
X0069337Y0061149D02*
X0071741Y0061149D01*
X0071234Y0059551D02*
X0072604Y0059551D01*
X0073110Y0057952D02*
X0071973Y0057952D01*
X0072089Y0056354D02*
X0073201Y0056354D01*
X0073201Y0054755D02*
X0071645Y0054755D01*
X0070445Y0053157D02*
X0073201Y0053157D01*
X0073201Y0051558D02*
X0015911Y0051558D01*
X0019863Y0049960D02*
X0058237Y0049960D01*
X0058155Y0053157D02*
X0019945Y0053157D01*
X0021145Y0054755D02*
X0056955Y0054755D01*
X0056511Y0056354D02*
X0021589Y0056354D01*
X0021473Y0057952D02*
X0056627Y0057952D01*
X0057366Y0059551D02*
X0020734Y0059551D01*
X0018837Y0061149D02*
X0059263Y0061149D01*
X0070363Y0049960D02*
X0073201Y0049960D01*
X0073201Y0048361D02*
X0071416Y0048361D01*
X0071700Y0046763D02*
X0073201Y0046763D01*
X0073201Y0045164D02*
X0071385Y0045164D01*
X0070288Y0043566D02*
X0073201Y0043566D01*
X0064300Y0036800D02*
X0013800Y0036800D01*
X0015911Y0032376D02*
X0073201Y0032376D01*
X0060392Y0021187D02*
X0017708Y0021187D01*
X0018605Y0022785D02*
X0059495Y0022785D01*
X0057538Y0024384D02*
X0020562Y0024384D01*
X0021200Y0025982D02*
X0056900Y0025982D01*
X0056900Y0027581D02*
X0021200Y0027581D01*
X0020577Y0029179D02*
X0057523Y0029179D01*
X0059405Y0030778D02*
X0018695Y0030778D01*
X0020197Y0033975D02*
X0057903Y0033975D01*
X0057866Y0019588D02*
X0020234Y0019588D01*
X0021070Y0017990D02*
X0057030Y0017990D01*
X0056900Y0016391D02*
X0021200Y0016391D01*
X0020731Y0014793D02*
X0057369Y0014793D01*
X0058683Y0013194D02*
X0019417Y0013194D01*
X0020263Y0004445D02*
X0020263Y0004445D01*
X0017240Y0068357D02*
X0017240Y0068357D01*
X0001800Y0070740D02*
X0081800Y0070740D01*
D12*
X0031918Y0040855D03*
X0020028Y0041209D03*
X0021918Y0061564D03*
M02*
