G75*
%MOIN*%
%OFA0B0*%
%FSLAX25Y25*%
%IPPOS*%
%LPD*%
%AMOC8*
5,1,8,0,0,1.08239X$1,22.5*
%
%ADD10C,0.00000*%
D10*
X0013611Y0014438D02*
X0013611Y0059438D01*
X0013611Y0059437D02*
X0013623Y0059625D01*
X0013640Y0059813D01*
X0013661Y0060000D01*
X0013687Y0060186D01*
X0013718Y0060372D01*
X0013752Y0060557D01*
X0013792Y0060741D01*
X0013835Y0060924D01*
X0013883Y0061106D01*
X0013936Y0061286D01*
X0013993Y0061466D01*
X0014054Y0061644D01*
X0014119Y0061820D01*
X0014189Y0061995D01*
X0014263Y0062168D01*
X0014341Y0062339D01*
X0014423Y0062508D01*
X0014509Y0062676D01*
X0014600Y0062841D01*
X0014694Y0063004D01*
X0014792Y0063164D01*
X0014894Y0063322D01*
X0015000Y0063478D01*
X0015109Y0063631D01*
X0015222Y0063782D01*
X0015339Y0063929D01*
X0015459Y0064074D01*
X0015583Y0064216D01*
X0015710Y0064354D01*
X0015841Y0064490D01*
X0015974Y0064622D01*
X0016111Y0064751D01*
X0016251Y0064877D01*
X0016394Y0065000D01*
X0016540Y0065119D01*
X0016689Y0065234D01*
X0016840Y0065346D01*
X0016994Y0065454D01*
X0017151Y0065558D01*
X0017310Y0065658D01*
X0017471Y0065755D01*
X0017635Y0065848D01*
X0017801Y0065936D01*
X0017969Y0066021D01*
X0018139Y0066101D01*
X0018311Y0066178D01*
X0018485Y0066250D01*
X0018661Y0066318D01*
X0018838Y0066382D01*
X0019016Y0066441D01*
X0019196Y0066496D01*
X0019377Y0066547D01*
X0019560Y0066594D01*
X0019743Y0066635D01*
X0019927Y0066673D01*
X0020113Y0066706D01*
X0020299Y0066735D01*
X0020485Y0066759D01*
X0020673Y0066778D01*
X0020860Y0066793D01*
X0021048Y0066804D01*
X0021236Y0066810D01*
X0021424Y0066811D01*
X0021612Y0066808D01*
X0021800Y0066800D01*
X0065501Y0066800D01*
X0065743Y0066797D01*
X0065984Y0066788D01*
X0066225Y0066774D01*
X0066466Y0066753D01*
X0066706Y0066727D01*
X0066946Y0066695D01*
X0067185Y0066657D01*
X0067422Y0066614D01*
X0067659Y0066564D01*
X0067894Y0066509D01*
X0068128Y0066449D01*
X0068360Y0066382D01*
X0068591Y0066311D01*
X0068820Y0066233D01*
X0069047Y0066150D01*
X0069272Y0066062D01*
X0069495Y0065968D01*
X0069715Y0065869D01*
X0069933Y0065764D01*
X0070148Y0065655D01*
X0070361Y0065540D01*
X0070571Y0065420D01*
X0070777Y0065295D01*
X0070981Y0065165D01*
X0071182Y0065030D01*
X0071379Y0064890D01*
X0071573Y0064746D01*
X0071763Y0064597D01*
X0071949Y0064443D01*
X0072132Y0064285D01*
X0072311Y0064123D01*
X0072486Y0063956D01*
X0072657Y0063785D01*
X0072824Y0063610D01*
X0072986Y0063431D01*
X0073144Y0063248D01*
X0073298Y0063062D01*
X0073447Y0062872D01*
X0073591Y0062678D01*
X0073731Y0062481D01*
X0073866Y0062280D01*
X0073996Y0062076D01*
X0074121Y0061870D01*
X0074241Y0061660D01*
X0074356Y0061447D01*
X0074465Y0061232D01*
X0074570Y0061014D01*
X0074669Y0060794D01*
X0074763Y0060571D01*
X0074851Y0060346D01*
X0074934Y0060119D01*
X0075012Y0059890D01*
X0075083Y0059659D01*
X0075150Y0059427D01*
X0075210Y0059193D01*
X0075265Y0058958D01*
X0075315Y0058721D01*
X0075358Y0058484D01*
X0075396Y0058245D01*
X0075428Y0058005D01*
X0075454Y0057765D01*
X0075475Y0057524D01*
X0075489Y0057283D01*
X0075498Y0057042D01*
X0075501Y0056800D01*
X0075501Y0016800D01*
X0075498Y0016558D01*
X0075489Y0016317D01*
X0075475Y0016076D01*
X0075454Y0015835D01*
X0075428Y0015595D01*
X0075396Y0015355D01*
X0075358Y0015116D01*
X0075315Y0014879D01*
X0075265Y0014642D01*
X0075210Y0014407D01*
X0075150Y0014173D01*
X0075083Y0013941D01*
X0075012Y0013710D01*
X0074934Y0013481D01*
X0074851Y0013254D01*
X0074763Y0013029D01*
X0074669Y0012806D01*
X0074570Y0012586D01*
X0074465Y0012368D01*
X0074356Y0012153D01*
X0074241Y0011940D01*
X0074121Y0011730D01*
X0073996Y0011524D01*
X0073866Y0011320D01*
X0073731Y0011119D01*
X0073591Y0010922D01*
X0073447Y0010728D01*
X0073298Y0010538D01*
X0073144Y0010352D01*
X0072986Y0010169D01*
X0072824Y0009990D01*
X0072657Y0009815D01*
X0072486Y0009644D01*
X0072311Y0009477D01*
X0072132Y0009315D01*
X0071949Y0009157D01*
X0071763Y0009003D01*
X0071573Y0008854D01*
X0071379Y0008710D01*
X0071182Y0008570D01*
X0070981Y0008435D01*
X0070777Y0008305D01*
X0070571Y0008180D01*
X0070361Y0008060D01*
X0070148Y0007945D01*
X0069933Y0007836D01*
X0069715Y0007731D01*
X0069495Y0007632D01*
X0069272Y0007538D01*
X0069047Y0007450D01*
X0068820Y0007367D01*
X0068591Y0007289D01*
X0068360Y0007218D01*
X0068128Y0007151D01*
X0067894Y0007091D01*
X0067659Y0007036D01*
X0067422Y0006986D01*
X0067185Y0006943D01*
X0066946Y0006905D01*
X0066706Y0006873D01*
X0066466Y0006847D01*
X0066225Y0006826D01*
X0065984Y0006812D01*
X0065743Y0006803D01*
X0065501Y0006800D01*
X0021800Y0006800D01*
X0021608Y0006795D01*
X0021417Y0006796D01*
X0021226Y0006801D01*
X0021035Y0006810D01*
X0020844Y0006824D01*
X0020653Y0006843D01*
X0020463Y0006866D01*
X0020274Y0006894D01*
X0020086Y0006927D01*
X0019898Y0006964D01*
X0019711Y0007005D01*
X0019525Y0007051D01*
X0019341Y0007102D01*
X0019158Y0007157D01*
X0018976Y0007216D01*
X0018795Y0007280D01*
X0018616Y0007348D01*
X0018439Y0007421D01*
X0018264Y0007497D01*
X0018091Y0007578D01*
X0017919Y0007663D01*
X0017750Y0007752D01*
X0017583Y0007846D01*
X0017418Y0007943D01*
X0017256Y0008044D01*
X0017096Y0008149D01*
X0016938Y0008258D01*
X0016784Y0008371D01*
X0016632Y0008487D01*
X0016483Y0008607D01*
X0016337Y0008731D01*
X0016194Y0008858D01*
X0016054Y0008988D01*
X0015917Y0009122D01*
X0015784Y0009259D01*
X0015654Y0009400D01*
X0015527Y0009543D01*
X0015404Y0009689D01*
X0015284Y0009839D01*
X0015168Y0009991D01*
X0015056Y0010146D01*
X0014947Y0010304D01*
X0014843Y0010464D01*
X0014742Y0010626D01*
X0014645Y0010792D01*
X0014553Y0010959D01*
X0014464Y0011128D01*
X0014379Y0011300D01*
X0014299Y0011474D01*
X0014223Y0011649D01*
X0014151Y0011827D01*
X0014083Y0012006D01*
X0014020Y0012186D01*
X0013961Y0012368D01*
X0013907Y0012552D01*
X0013857Y0012736D01*
X0013811Y0012922D01*
X0013770Y0013109D01*
X0013734Y0013297D01*
X0013702Y0013486D01*
X0013674Y0013675D01*
X0013652Y0013865D01*
X0013633Y0014055D01*
X0013620Y0014246D01*
X0013611Y0014437D01*
M02*
